<svg viewBox="0 0 43.2 16" xmlns="http://www.w3.org/2000/svg">
<style>
  .screen {
    font-family: "ui-monospace", "Consolas", "Liberation Mono", "Source Code Pro", monospace;
    font-size: 1px;
  }
</style>
<g class="screen">
<rect x="0" y="0" width="43.2" height="16" style="fill: #002b36;" /><rect x="0" y="1" width="1.8000001" height="1" style="fill: #000000;" /><rect x="2.4" y="1" width="1.8000001" height="1" style="fill: #00005f;" /><rect x="4.8" y="1" width="1.8000001" height="1" style="fill: #000087;" /><rect x="7.2000003" y="1" width="1.8000001" height="1" style="fill: #0000af;" /><rect x="9.6" y="1" width="1.8000001" height="1" style="fill: #0000d7;" /><rect x="12" y="1" width="1.8000001" height="1" style="fill: #0000ff;" /><rect x="14.400001" y="1" width="1.8000001" height="1" style="fill: #005f00;" /><rect x="16.800001" y="1" width="1.8000001" height="1" style="fill: #005f5f;" /><rect x="19.2" y="1" width="1.8000001" height="1" style="fill: #005f87;" /><rect x="21.6" y="1" width="1.8000001" height="1" style="fill: #005faf;" /><rect x="24" y="1" width="1.8000001" height="1" style="fill: #005fd7;" /><rect x="26.400002" y="1" width="1.8000001" height="1" style="fill: #005fff;" /><rect x="28.800001" y="1" width="1.8000001" height="1" style="fill: #008700;" /><rect x="31.2" y="1" width="1.8000001" height="1" style="fill: #00875f;" /><rect x="33.600002" y="1" width="1.8000001" height="1" style="fill: #008787;" /><rect x="36" y="1" width="1.8000001" height="1" style="fill: #0087af;" /><rect x="38.4" y="1" width="1.8000001" height="1" style="fill: #0087d7;" /><rect x="40.800003" y="1" width="1.8000001" height="1" style="fill: #0087ff;" /><rect x="0" y="2" width="1.8000001" height="1" style="fill: #00af00;" /><rect x="2.4" y="2" width="1.8000001" height="1" style="fill: #00af5f;" /><rect x="4.8" y="2" width="1.8000001" height="1" style="fill: #00af87;" /><rect x="7.2000003" y="2" width="1.8000001" height="1" style="fill: #00afaf;" /><rect x="9.6" y="2" width="1.8000001" height="1" style="fill: #00afd7;" /><rect x="12" y="2" width="1.8000001" height="1" style="fill: #00afff;" /><rect x="14.400001" y="2" width="1.8000001" height="1" style="fill: #00d700;" /><rect x="16.800001" y="2" width="1.8000001" height="1" style="fill: #00d75f;" /><rect x="19.2" y="2" width="1.8000001" height="1" style="fill: #00d787;" /><rect x="21.6" y="2" width="1.8000001" height="1" style="fill: #00d7af;" /><rect x="24" y="2" width="1.8000001" height="1" style="fill: #00d7d7;" /><rect x="26.400002" y="2" width="1.8000001" height="1" style="fill: #00d7ff;" /><rect x="28.800001" y="2" width="1.8000001" height="1" style="fill: #00ff00;" /><rect x="31.2" y="2" width="1.8000001" height="1" style="fill: #00ff5f;" /><rect x="33.600002" y="2" width="1.8000001" height="1" style="fill: #00ff87;" /><rect x="36" y="2" width="1.8000001" height="1" style="fill: #00ffaf;" /><rect x="38.4" y="2" width="1.8000001" height="1" style="fill: #00ffd7;" /><rect x="40.800003" y="2" width="1.8000001" height="1" style="fill: #00ffff;" /><rect x="0" y="3" width="1.8000001" height="1" style="fill: #5f0000;" /><rect x="2.4" y="3" width="1.8000001" height="1" style="fill: #5f005f;" /><rect x="4.8" y="3" width="1.8000001" height="1" style="fill: #5f0087;" /><rect x="7.2000003" y="3" width="1.8000001" height="1" style="fill: #5f00af;" /><rect x="9.6" y="3" width="1.8000001" height="1" style="fill: #5f00d7;" /><rect x="12" y="3" width="1.8000001" height="1" style="fill: #5f00ff;" /><rect x="14.400001" y="3" width="1.8000001" height="1" style="fill: #5f5f00;" /><rect x="16.800001" y="3" width="1.8000001" height="1" style="fill: #5f5f5f;" /><rect x="19.2" y="3" width="1.8000001" height="1" style="fill: #5f5f87;" /><rect x="21.6" y="3" width="1.8000001" height="1" style="fill: #5f5faf;" /><rect x="24" y="3" width="1.8000001" height="1" style="fill: #5f5fd7;" /><rect x="26.400002" y="3" width="1.8000001" height="1" style="fill: #5f5fff;" /><rect x="28.800001" y="3" width="1.8000001" height="1" style="fill: #5f8700;" /><rect x="31.2" y="3" width="1.8000001" height="1" style="fill: #5f875f;" /><rect x="33.600002" y="3" width="1.8000001" height="1" style="fill: #5f8787;" /><rect x="36" y="3" width="1.8000001" height="1" style="fill: #5f87af;" /><rect x="38.4" y="3" width="1.8000001" height="1" style="fill: #5f87d7;" /><rect x="40.800003" y="3" width="1.8000001" height="1" style="fill: #5f87ff;" /><rect x="0" y="4" width="1.8000001" height="1" style="fill: #5faf00;" /><rect x="2.4" y="4" width="1.8000001" height="1" style="fill: #5faf5f;" /><rect x="4.8" y="4" width="1.8000001" height="1" style="fill: #5faf87;" /><rect x="7.2000003" y="4" width="1.8000001" height="1" style="fill: #5fafaf;" /><rect x="9.6" y="4" width="1.8000001" height="1" style="fill: #5fafd7;" /><rect x="12" y="4" width="1.8000001" height="1" style="fill: #5fafff;" /><rect x="14.400001" y="4" width="1.8000001" height="1" style="fill: #5fd700;" /><rect x="16.800001" y="4" width="1.8000001" height="1" style="fill: #5fd75f;" /><rect x="19.2" y="4" width="1.8000001" height="1" style="fill: #5fd787;" /><rect x="21.6" y="4" width="1.8000001" height="1" style="fill: #5fd7af;" /><rect x="24" y="4" width="1.8000001" height="1" style="fill: #5fd7d7;" /><rect x="26.400002" y="4" width="1.8000001" height="1" style="fill: #5fd7ff;" /><rect x="28.800001" y="4" width="1.8000001" height="1" style="fill: #5fff00;" /><rect x="31.2" y="4" width="1.8000001" height="1" style="fill: #5fff5f;" /><rect x="33.600002" y="4" width="1.8000001" height="1" style="fill: #5fff87;" /><rect x="36" y="4" width="1.8000001" height="1" style="fill: #5fffaf;" /><rect x="38.4" y="4" width="1.8000001" height="1" style="fill: #5fffd7;" /><rect x="40.800003" y="4" width="1.8000001" height="1" style="fill: #5fffff;" /><rect x="0" y="5" width="1.8000001" height="1" style="fill: #870000;" /><rect x="2.4" y="5" width="1.8000001" height="1" style="fill: #87005f;" /><rect x="4.8" y="5" width="1.8000001" height="1" style="fill: #870087;" /><rect x="7.2000003" y="5" width="1.8000001" height="1" style="fill: #8700af;" /><rect x="9.6" y="5" width="1.8000001" height="1" style="fill: #8700d7;" /><rect x="12" y="5" width="1.8000001" height="1" style="fill: #8700ff;" /><rect x="14.400001" y="5" width="1.8000001" height="1" style="fill: #875f00;" /><rect x="16.800001" y="5" width="1.8000001" height="1" style="fill: #875f5f;" /><rect x="19.2" y="5" width="1.8000001" height="1" style="fill: #875f87;" /><rect x="21.6" y="5" width="1.8000001" height="1" style="fill: #875faf;" /><rect x="24" y="5" width="1.8000001" height="1" style="fill: #875fd7;" /><rect x="26.400002" y="5" width="1.8000001" height="1" style="fill: #875fff;" /><rect x="28.800001" y="5" width="1.8000001" height="1" style="fill: #878700;" /><rect x="31.2" y="5" width="1.8000001" height="1" style="fill: #87875f;" /><rect x="33.600002" y="5" width="1.8000001" height="1" style="fill: #878787;" /><rect x="36" y="5" width="1.8000001" height="1" style="fill: #8787af;" /><rect x="38.4" y="5" width="1.8000001" height="1" style="fill: #8787d7;" /><rect x="40.800003" y="5" width="1.8000001" height="1" style="fill: #8787ff;" /><rect x="0" y="6" width="1.8000001" height="1" style="fill: #87af00;" /><rect x="2.4" y="6" width="1.8000001" height="1" style="fill: #87af5f;" /><rect x="4.8" y="6" width="1.8000001" height="1" style="fill: #87af87;" /><rect x="7.2000003" y="6" width="1.8000001" height="1" style="fill: #87afaf;" /><rect x="9.6" y="6" width="1.8000001" height="1" style="fill: #87afd7;" /><rect x="12" y="6" width="1.8000001" height="1" style="fill: #87afff;" /><rect x="14.400001" y="6" width="1.8000001" height="1" style="fill: #87d700;" /><rect x="16.800001" y="6" width="1.8000001" height="1" style="fill: #87d75f;" /><rect x="19.2" y="6" width="1.8000001" height="1" style="fill: #87d787;" /><rect x="21.6" y="6" width="1.8000001" height="1" style="fill: #87d7af;" /><rect x="24" y="6" width="1.8000001" height="1" style="fill: #87d7d7;" /><rect x="26.400002" y="6" width="1.8000001" height="1" style="fill: #87d7ff;" /><rect x="28.800001" y="6" width="1.8000001" height="1" style="fill: #87ff00;" /><rect x="31.2" y="6" width="1.8000001" height="1" style="fill: #87ff5f;" /><rect x="33.600002" y="6" width="1.8000001" height="1" style="fill: #87ff87;" /><rect x="36" y="6" width="1.8000001" height="1" style="fill: #87ffaf;" /><rect x="38.4" y="6" width="1.8000001" height="1" style="fill: #87ffd7;" /><rect x="40.800003" y="6" width="1.8000001" height="1" style="fill: #87ffff;" /><rect x="0" y="7" width="1.8000001" height="1" style="fill: #af0000;" /><rect x="2.4" y="7" width="1.8000001" height="1" style="fill: #af005f;" /><rect x="4.8" y="7" width="1.8000001" height="1" style="fill: #af0087;" /><rect x="7.2000003" y="7" width="1.8000001" height="1" style="fill: #af00af;" /><rect x="9.6" y="7" width="1.8000001" height="1" style="fill: #af00d7;" /><rect x="12" y="7" width="1.8000001" height="1" style="fill: #af00ff;" /><rect x="14.400001" y="7" width="1.8000001" height="1" style="fill: #af5f00;" /><rect x="16.800001" y="7" width="1.8000001" height="1" style="fill: #af5f5f;" /><rect x="19.2" y="7" width="1.8000001" height="1" style="fill: #af5f87;" /><rect x="21.6" y="7" width="1.8000001" height="1" style="fill: #af5faf;" /><rect x="24" y="7" width="1.8000001" height="1" style="fill: #af5fd7;" /><rect x="26.400002" y="7" width="1.8000001" height="1" style="fill: #af5fff;" /><rect x="28.800001" y="7" width="1.8000001" height="1" style="fill: #af8700;" /><rect x="31.2" y="7" width="1.8000001" height="1" style="fill: #af875f;" /><rect x="33.600002" y="7" width="1.8000001" height="1" style="fill: #af8787;" /><rect x="36" y="7" width="1.8000001" height="1" style="fill: #af87af;" /><rect x="38.4" y="7" width="1.8000001" height="1" style="fill: #af87d7;" /><rect x="40.800003" y="7" width="1.8000001" height="1" style="fill: #af87ff;" /><rect x="0" y="8" width="1.8000001" height="1" style="fill: #afaf00;" /><rect x="2.4" y="8" width="1.8000001" height="1" style="fill: #afaf5f;" /><rect x="4.8" y="8" width="1.8000001" height="1" style="fill: #afaf87;" /><rect x="7.2000003" y="8" width="1.8000001" height="1" style="fill: #afafaf;" /><rect x="9.6" y="8" width="1.8000001" height="1" style="fill: #afafd7;" /><rect x="12" y="8" width="1.8000001" height="1" style="fill: #afafff;" /><rect x="14.400001" y="8" width="1.8000001" height="1" style="fill: #afd700;" /><rect x="16.800001" y="8" width="1.8000001" height="1" style="fill: #afd75f;" /><rect x="19.2" y="8" width="1.8000001" height="1" style="fill: #afd787;" /><rect x="21.6" y="8" width="1.8000001" height="1" style="fill: #afd7af;" /><rect x="24" y="8" width="1.8000001" height="1" style="fill: #afd7d7;" /><rect x="26.400002" y="8" width="1.8000001" height="1" style="fill: #afd7ff;" /><rect x="28.800001" y="8" width="1.8000001" height="1" style="fill: #afff00;" /><rect x="31.2" y="8" width="1.8000001" height="1" style="fill: #afff5f;" /><rect x="33.600002" y="8" width="1.8000001" height="1" style="fill: #afff87;" /><rect x="36" y="8" width="1.8000001" height="1" style="fill: #afffaf;" /><rect x="38.4" y="8" width="1.8000001" height="1" style="fill: #afffd7;" /><rect x="40.800003" y="8" width="1.8000001" height="1" style="fill: #afffff;" /><rect x="0" y="9" width="1.8000001" height="1" style="fill: #d70000;" /><rect x="2.4" y="9" width="1.8000001" height="1" style="fill: #d7005f;" /><rect x="4.8" y="9" width="1.8000001" height="1" style="fill: #d70087;" /><rect x="7.2000003" y="9" width="1.8000001" height="1" style="fill: #d700af;" /><rect x="9.6" y="9" width="1.8000001" height="1" style="fill: #d700d7;" /><rect x="12" y="9" width="1.8000001" height="1" style="fill: #d700ff;" /><rect x="14.400001" y="9" width="1.8000001" height="1" style="fill: #d75f00;" /><rect x="16.800001" y="9" width="1.8000001" height="1" style="fill: #d75f5f;" /><rect x="19.2" y="9" width="1.8000001" height="1" style="fill: #d75f87;" /><rect x="21.6" y="9" width="1.8000001" height="1" style="fill: #d75faf;" /><rect x="24" y="9" width="1.8000001" height="1" style="fill: #d75fd7;" /><rect x="26.400002" y="9" width="1.8000001" height="1" style="fill: #d75fff;" /><rect x="28.800001" y="9" width="1.8000001" height="1" style="fill: #d78700;" /><rect x="31.2" y="9" width="1.8000001" height="1" style="fill: #d7875f;" /><rect x="33.600002" y="9" width="1.8000001" height="1" style="fill: #d78787;" /><rect x="36" y="9" width="1.8000001" height="1" style="fill: #d787af;" /><rect x="38.4" y="9" width="1.8000001" height="1" style="fill: #d787d7;" /><rect x="40.800003" y="9" width="1.8000001" height="1" style="fill: #d787ff;" /><rect x="0" y="10" width="1.8000001" height="1" style="fill: #d7af00;" /><rect x="2.4" y="10" width="1.8000001" height="1" style="fill: #d7af5f;" /><rect x="4.8" y="10" width="1.8000001" height="1" style="fill: #d7af87;" /><rect x="7.2000003" y="10" width="1.8000001" height="1" style="fill: #d7afaf;" /><rect x="9.6" y="10" width="1.8000001" height="1" style="fill: #d7afd7;" /><rect x="12" y="10" width="1.8000001" height="1" style="fill: #d7afff;" /><rect x="14.400001" y="10" width="1.8000001" height="1" style="fill: #d7d700;" /><rect x="16.800001" y="10" width="1.8000001" height="1" style="fill: #d7d75f;" /><rect x="19.2" y="10" width="1.8000001" height="1" style="fill: #d7d787;" /><rect x="21.6" y="10" width="1.8000001" height="1" style="fill: #d7d7af;" /><rect x="24" y="10" width="1.8000001" height="1" style="fill: #d7d7d7;" /><rect x="26.400002" y="10" width="1.8000001" height="1" style="fill: #d7d7ff;" /><rect x="28.800001" y="10" width="1.8000001" height="1" style="fill: #d7ff00;" /><rect x="31.2" y="10" width="1.8000001" height="1" style="fill: #d7ff5f;" /><rect x="33.600002" y="10" width="1.8000001" height="1" style="fill: #d7ff87;" /><rect x="36" y="10" width="1.8000001" height="1" style="fill: #d7ffaf;" /><rect x="38.4" y="10" width="1.8000001" height="1" style="fill: #d7ffd7;" /><rect x="40.800003" y="10" width="1.8000001" height="1" style="fill: #d7ffff;" /><rect x="0" y="11" width="1.8000001" height="1" style="fill: #ff0000;" /><rect x="2.4" y="11" width="1.8000001" height="1" style="fill: #ff005f;" /><rect x="4.8" y="11" width="1.8000001" height="1" style="fill: #ff0087;" /><rect x="7.2000003" y="11" width="1.8000001" height="1" style="fill: #ff00af;" /><rect x="9.6" y="11" width="1.8000001" height="1" style="fill: #ff00d7;" /><rect x="12" y="11" width="1.8000001" height="1" style="fill: #ff00ff;" /><rect x="14.400001" y="11" width="1.8000001" height="1" style="fill: #ff5f00;" /><rect x="16.800001" y="11" width="1.8000001" height="1" style="fill: #ff5f5f;" /><rect x="19.2" y="11" width="1.8000001" height="1" style="fill: #ff5f87;" /><rect x="21.6" y="11" width="1.8000001" height="1" style="fill: #ff5faf;" /><rect x="24" y="11" width="1.8000001" height="1" style="fill: #ff5fd7;" /><rect x="26.400002" y="11" width="1.8000001" height="1" style="fill: #ff5fff;" /><rect x="28.800001" y="11" width="1.8000001" height="1" style="fill: #ff8700;" /><rect x="31.2" y="11" width="1.8000001" height="1" style="fill: #ff875f;" /><rect x="33.600002" y="11" width="1.8000001" height="1" style="fill: #ff8787;" /><rect x="36" y="11" width="1.8000001" height="1" style="fill: #ff87af;" /><rect x="38.4" y="11" width="1.8000001" height="1" style="fill: #ff87d7;" /><rect x="40.800003" y="11" width="1.8000001" height="1" style="fill: #ff87ff;" /><rect x="0" y="12" width="1.8000001" height="1" style="fill: #ffaf00;" /><rect x="2.4" y="12" width="1.8000001" height="1" style="fill: #ffaf5f;" /><rect x="4.8" y="12" width="1.8000001" height="1" style="fill: #ffaf87;" /><rect x="7.2000003" y="12" width="1.8000001" height="1" style="fill: #ffafaf;" /><rect x="9.6" y="12" width="1.8000001" height="1" style="fill: #ffafd7;" /><rect x="12" y="12" width="1.8000001" height="1" style="fill: #ffafff;" /><rect x="14.400001" y="12" width="1.8000001" height="1" style="fill: #ffd700;" /><rect x="16.800001" y="12" width="1.8000001" height="1" style="fill: #ffd75f;" /><rect x="19.2" y="12" width="1.8000001" height="1" style="fill: #ffd787;" /><rect x="21.6" y="12" width="1.8000001" height="1" style="fill: #ffd7af;" /><rect x="24" y="12" width="1.8000001" height="1" style="fill: #ffd7d7;" /><rect x="26.400002" y="12" width="1.8000001" height="1" style="fill: #ffd7ff;" /><rect x="28.800001" y="12" width="1.8000001" height="1" style="fill: #ffff00;" /><rect x="31.2" y="12" width="1.8000001" height="1" style="fill: #ffff5f;" /><rect x="33.600002" y="12" width="1.8000001" height="1" style="fill: #ffff87;" /><rect x="36" y="12" width="1.8000001" height="1" style="fill: #ffffaf;" /><rect x="38.4" y="12" width="1.8000001" height="1" style="fill: #ffffd7;" /><rect x="40.800003" y="12" width="1.8000001" height="1" style="fill: #ffffff;" /><text x="0" y="0.75" textLength="0.6" style="fill: #859900; font-weight: 600;">$</text><text x="1.2" y="0.75" textLength="38.4" style="fill: #839496;">for&#160;x&#160;in&#160;{16..231};&#160;do&#160;printf&#160;"\e[48;5;${x}m%03d\e[0m&#160;"&#160;$x;&#160;done</text><text x="0" y="1.75" textLength="42.600002" style="fill: #839496;">016&#160;017&#160;018&#160;019&#160;020&#160;021&#160;022&#160;023&#160;024&#160;025&#160;026&#160;027&#160;028&#160;029&#160;030&#160;031&#160;032&#160;033</text><text x="0" y="2.75" textLength="42.600002" style="fill: #839496;">034&#160;035&#160;036&#160;037&#160;038&#160;039&#160;040&#160;041&#160;042&#160;043&#160;044&#160;045&#160;046&#160;047&#160;048&#160;049&#160;050&#160;051</text><text x="0" y="3.75" textLength="42.600002" style="fill: #839496;">052&#160;053&#160;054&#160;055&#160;056&#160;057&#160;058&#160;059&#160;060&#160;061&#160;062&#160;063&#160;064&#160;065&#160;066&#160;067&#160;068&#160;069</text><text x="0" y="4.75" textLength="42.600002" style="fill: #839496;">070&#160;071&#160;072&#160;073&#160;074&#160;075&#160;076&#160;077&#160;078&#160;079&#160;080&#160;081&#160;082&#160;083&#160;084&#160;085&#160;086&#160;087</text><text x="0" y="5.75" textLength="42.600002" style="fill: #839496;">088&#160;089&#160;090&#160;091&#160;092&#160;093&#160;094&#160;095&#160;096&#160;097&#160;098&#160;099&#160;100&#160;101&#160;102&#160;103&#160;104&#160;105</text><text x="0" y="6.75" textLength="42.600002" style="fill: #839496;">106&#160;107&#160;108&#160;109&#160;110&#160;111&#160;112&#160;113&#160;114&#160;115&#160;116&#160;117&#160;118&#160;119&#160;120&#160;121&#160;122&#160;123</text><text x="0" y="7.75" textLength="42.600002" style="fill: #839496;">124&#160;125&#160;126&#160;127&#160;128&#160;129&#160;130&#160;131&#160;132&#160;133&#160;134&#160;135&#160;136&#160;137&#160;138&#160;139&#160;140&#160;141</text><text x="0" y="8.75" textLength="42.600002" style="fill: #839496;">142&#160;143&#160;144&#160;145&#160;146&#160;147&#160;148&#160;149&#160;150&#160;151&#160;152&#160;153&#160;154&#160;155&#160;156&#160;157&#160;158&#160;159</text><text x="0" y="9.75" textLength="42.600002" style="fill: #839496;">160&#160;161&#160;162&#160;163&#160;164&#160;165&#160;166&#160;167&#160;168&#160;169&#160;170&#160;171&#160;172&#160;173&#160;174&#160;175&#160;176&#160;177</text><text x="0" y="10.75" textLength="42.600002" style="fill: #839496;">178&#160;179&#160;180&#160;181&#160;182&#160;183&#160;184&#160;185&#160;186&#160;187&#160;188&#160;189&#160;190&#160;191&#160;192&#160;193&#160;194&#160;195</text><text x="0" y="11.75" textLength="42.600002" style="fill: #839496;">196&#160;197&#160;198&#160;199&#160;200&#160;201&#160;202&#160;203&#160;204&#160;205&#160;206&#160;207&#160;208&#160;209&#160;210&#160;211&#160;212&#160;213</text><text x="0" y="12.75" textLength="42.600002" style="fill: #839496;">214&#160;215&#160;216&#160;217&#160;218&#160;219&#160;220&#160;221&#160;222&#160;223&#160;224&#160;225&#160;226&#160;227&#160;228&#160;229&#160;230&#160;231</text><text x="0" y="13.75" textLength="0.6" style="fill: #859900; font-weight: 600;">$</text><text x="0" y="14.75" textLength="2.4" style="fill: #839496;">exit</text>
</g>
</svg>