<svg viewBox="0 0 43.2 16" xmlns="http://www.w3.org/2000/svg">
<style>
  .screen {
    font-family: "ui-monospace", "Consolas", "Liberation Mono", "Source Code Pro", monospace;
    font-size: 1px;
  }
</style>
<g class="screen">
<rect x="0" y="0" width="43.2" height="16" style="fill: #002b36;" /><rect x="0" y="1" width="1.8000001" height="1" style="fill: #000000;" /><rect x="2.4" y="1" width="1.8000001" height="1" style="fill: #00005f;" /><rect x="4.8" y="1" width="1.8000001" height="1" style="fill: #000087;" /><rect x="7.2000003" y="1" width="1.8000001" height="1" style="fill: #0000af;" /><rect x="9.6" y="1" width="1.8000001" height="1" style="fill: #0000d7;" /><rect x="12" y="1" width="1.8000001" height="1" style="fill: #0000ff;" /><rect x="14.400001" y="1" width="1.8000001" height="1" style="fill: #005f00;" /><rect x="16.800001" y="1" width="1.8000001" height="1" style="fill: #005f5f;" /><rect x="19.2" y="1" width="1.8000001" height="1" style="fill: #005f87;" /><rect x="21.6" y="1" width="1.8000001" height="1" style="fill: #005faf;" /><rect x="24" y="1" width="1.8000001" height="1" style="fill: #005fd7;" /><rect x="26.400002" y="1" width="1.8000001" height="1" style="fill: #005fff;" /><rect x="28.800001" y="1" width="1.8000001" height="1" style="fill: #008700;" /><rect x="31.2" y="1" width="1.8000001" height="1" style="fill: #00875f;" /><rect x="33.600002" y="1" width="1.8000001" height="1" style="fill: #008787;" /><rect x="36" y="1" width="1.8000001" height="1" style="fill: #0087af;" /><rect x="38.4" y="1" width="1.8000001" height="1" style="fill: #0087d7;" /><rect x="40.800003" y="1" width="1.8000001" height="1" style="fill: #0087ff;" /><rect x="0" y="2" width="1.8000001" height="1" style="fill: #00af00;" /><rect x="2.4" y="2" width="1.8000001" height="1" style="fill: #00af5f;" /><rect x="4.8" y="2" width="1.8000001" height="1" style="fill: #00af87;" /><rect x="7.2000003" y="2" width="1.8000001" height="1" style="fill: #00afaf;" /><rect x="9.6" y="2" width="1.8000001" height="1" style="fill: #00afd7;" /><rect x="12" y="2" width="1.8000001" height="1" style="fill: #00afff;" /><rect x="14.400001" y="2" width="1.8000001" height="1" style="fill: #00d700;" /><rect x="16.800001" y="2" width="1.8000001" height="1" style="fill: #00d75f;" /><rect x="19.2" y="2" width="1.8000001" height="1" style="fill: #00d787;" /><rect x="21.6" y="2" width="1.8000001" height="1" style="fill: #00d7af;" /><rect x="24" y="2" width="1.8000001" height="1" style="fill: #00d7d7;" /><rect x="26.400002" y="2" width="1.8000001" height="1" style="fill: #00d7ff;" /><rect x="28.800001" y="2" width="1.8000001" height="1" style="fill: #00ff00;" /><rect x="31.2" y="2" width="1.8000001" height="1" style="fill: #00ff5f;" /><rect x="33.600002" y="2" width="1.8000001" height="1" style="fill: #00ff87;" /><rect x="36" y="2" width="1.8000001" height="1" style="fill: #00ffaf;" /><rect x="38.4" y="2" width="1.8000001" height="1" style="fill: #00ffd7;" /><rect x="40.800003" y="2" width="1.8000001" height="1" style="fill: #00ffff;" /><rect x="0" y="3" width="1.8000001" height="1" style="fill: #5f0000;" /><rect x="2.4" y="3" width="1.8000001" height="1" style="fill: #5f005f;" /><rect x="4.8" y="3" width="1.8000001" height="1" style="fill: #5f0087;" /><rect x="7.2000003" y="3" width="1.8000001" height="1" style="fill: #5f00af;" /><rect x="9.6" y="3" width="1.8000001" height="1" style="fill: #5f00d7;" /><rect x="12" y="3" width="1.8000001" height="1" style="fill: #5f00ff;" /><rect x="14.400001" y="3" width="1.8000001" height="1" style="fill: #5f5f00;" /><rect x="16.800001" y="3" width="1.8000001" height="1" style="fill: #5f5f5f;" /><rect x="19.2" y="3" width="1.8000001" height="1" style="fill: #5f5f87;" /><rect x="21.6" y="3" width="1.8000001" height="1" style="fill: #5f5faf;" /><rect x="24" y="3" width="1.8000001" height="1" style="fill: #5f5fd7;" /><rect x="26.400002" y="3" width="1.8000001" height="1" style="fill: #5f5fff;" /><rect x="28.800001" y="3" width="1.8000001" height="1" style="fill: #5f8700;" /><rect x="31.2" y="3" width="1.8000001" height="1" style="fill: #5f875f;" /><rect x="33.600002" y="3" width="1.8000001" height="1" style="fill: #5f8787;" /><rect x="36" y="3" width="1.8000001" height="1" style="fill: #5f87af;" /><rect x="38.4" y="3" width="1.8000001" height="1" style="fill: #5f87d7;" /><rect x="40.800003" y="3" width="1.8000001" height="1" style="fill: #5f87ff;" /><rect x="0" y="4" width="1.8000001" height="1" style="fill: #5faf00;" /><rect x="2.4" y="4" width="1.8000001" height="1" style="fill: #5faf5f;" /><rect x="4.8" y="4" width="1.8000001" height="1" style="fill: #5faf87;" /><rect x="7.2000003" y="4" width="1.8000001" height="1" style="fill: #5fafaf;" /><rect x="9.6" y="4" width="1.8000001" height="1" style="fill: #5fafd7;" /><rect x="12" y="4" width="1.8000001" height="1" style="fill: #5fafff;" /><rect x="14.400001" y="4" width="1.8000001" height="1" style="fill: #5fd700;" /><rect x="16.800001" y="4" width="1.8000001" height="1" style="fill: #5fd75f;" /><rect x="19.2" y="4" width="1.8000001" height="1" style="fill: #5fd787;" /><rect x="21.6" y="4" width="1.8000001" height="1" style="fill: #5fd7af;" /><rect x="24" y="4" width="1.8000001" height="1" style="fill: #5fd7d7;" /><rect x="26.400002" y="4" width="1.8000001" height="1" style="fill: #5fd7ff;" /><rect x="28.800001" y="4" width="1.8000001" height="1" style="fill: #5fff00;" /><rect x="31.2" y="4" width="1.8000001" height="1" style="fill: #5fff5f;" /><rect x="33.600002" y="4" width="1.8000001" height="1" style="fill: #5fff87;" /><rect x="36" y="4" width="1.8000001" height="1" style="fill: #5fffaf;" /><rect x="38.4" y="4" width="1.8000001" height="1" style="fill: #5fffd7;" /><rect x="40.800003" y="4" width="1.8000001" height="1" style="fill: #5fffff;" /><rect x="0" y="5" width="1.8000001" height="1" style="fill: #870000;" /><rect x="2.4" y="5" width="1.8000001" height="1" style="fill: #87005f;" /><rect x="4.8" y="5" width="1.8000001" height="1" style="fill: #870087;" /><rect x="7.2000003" y="5" width="1.8000001" height="1" style="fill: #8700af;" /><rect x="9.6" y="5" width="1.8000001" height="1" style="fill: #8700d7;" /><rect x="12" y="5" width="1.8000001" height="1" style="fill: #8700ff;" /><rect x="14.400001" y="5" width="1.8000001" height="1" style="fill: #875f00;" /><rect x="16.800001" y="5" width="1.8000001" height="1" style="fill: #875f5f;" /><rect x="19.2" y="5" width="1.8000001" height="1" style="fill: #875f87;" /><rect x="21.6" y="5" width="1.8000001" height="1" style="fill: #875faf;" /><rect x="24" y="5" width="1.8000001" height="1" style="fill: #875fd7;" /><rect x="26.400002" y="5" width="1.8000001" height="1" style="fill: #875fff;" /><rect x="28.800001" y="5" width="1.8000001" height="1" style="fill: #878700;" /><rect x="31.2" y="5" width="1.8000001" height="1" style="fill: #87875f;" /><rect x="33.600002" y="5" width="1.8000001" height="1" style="fill: #878787;" /><rect x="36" y="5" width="1.8000001" height="1" style="fill: #8787af;" /><rect x="38.4" y="5" width="1.8000001" height="1" style="fill: #8787d7;" /><rect x="40.800003" y="5" width="1.8000001" height="1" style="fill: #8787ff;" /><rect x="0" y="6" width="1.8000001" height="1" style="fill: #87af00;" /><rect x="2.4" y="6" width="1.8000001" height="1" style="fill: #87af5f;" /><rect x="4.8" y="6" width="1.8000001" height="1" style="fill: #87af87;" /><rect x="7.2000003" y="6" width="1.8000001" height="1" style="fill: #87afaf;" /><rect x="9.6" y="6" width="1.8000001" height="1" style="fill: #87afd7;" /><rect x="12" y="6" width="1.8000001" height="1" style="fill: #87afff;" /><rect x="14.400001" y="6" width="1.8000001" height="1" style="fill: #87d700;" /><rect x="16.800001" y="6" width="1.8000001" height="1" style="fill: #87d75f;" /><rect x="19.2" y="6" width="1.8000001" height="1" style="fill: #87d787;" /><rect x="21.6" y="6" width="1.8000001" height="1" style="fill: #87d7af;" /><rect x="24" y="6" width="1.8000001" height="1" style="fill: #87d7d7;" /><rect x="26.400002" y="6" width="1.8000001" height="1" style="fill: #87d7ff;" /><rect x="28.800001" y="6" width="1.8000001" height="1" style="fill: #87ff00;" /><rect x="31.2" y="6" width="1.8000001" height="1" style="fill: #87ff5f;" /><rect x="33.600002" y="6" width="1.8000001" height="1" style="fill: #87ff87;" /><rect x="36" y="6" width="1.8000001" height="1" style="fill: #87ffaf;" /><rect x="38.4" y="6" width="1.8000001" height="1" style="fill: #87ffd7;" /><rect x="40.800003" y="6" width="1.8000001" height="1" style="fill: #87ffff;" /><rect x="0" y="7" width="1.8000001" height="1" style="fill: #af0000;" /><rect x="2.4" y="7" width="1.8000001" height="1" style="fill: #af005f;" /><rect x="4.8" y="7" width="1.8000001" height="1" style="fill: #af0087;" /><rect x="7.2000003" y="7" width="1.8000001" height="1" style="fill: #af00af;" /><rect x="9.6" y="7" width="1.8000001" height="1" style="fill: #af00d7;" /><rect x="12" y="7" width="1.8000001" height="1" style="fill: #af00ff;" /><rect x="14.400001" y="7" width="1.8000001" height="1" style="fill: #af5f00;" /><rect x="16.800001" y="7" width="1.8000001" height="1" style="fill: #af5f5f;" /><rect x="19.2" y="7" width="1.8000001" height="1" style="fill: #af5f87;" /><rect x="21.6" y="7" width="1.8000001" height="1" style="fill: #af5faf;" /><rect x="24" y="7" width="1.8000001" height="1" style="fill: #af5fd7;" /><rect x="26.400002" y="7" width="1.8000001" height="1" style="fill: #af5fff;" /><rect x="28.800001" y="7" width="1.8000001" height="1" style="fill: #af8700;" /><rect x="31.2" y="7" width="1.8000001" height="1" style="fill: #af875f;" /><rect x="33.600002" y="7" width="1.8000001" height="1" style="fill: #af8787;" /><rect x="36" y="7" width="1.8000001" height="1" style="fill: #af87af;" /><rect x="38.4" y="7" width="1.8000001" height="1" style="fill: #af87d7;" /><rect x="40.800003" y="7" width="1.8000001" height="1" style="fill: #af87ff;" /><rect x="0" y="8" width="1.8000001" height="1" style="fill: #afaf00;" /><rect x="2.4" y="8" width="1.8000001" height="1" style="fill: #afaf5f;" /><rect x="4.8" y="8" width="1.8000001" height="1" style="fill: #afaf87;" /><rect x="7.2000003" y="8" width="1.8000001" height="1" style="fill: #afafaf;" /><rect x="9.6" y="8" width="1.8000001" height="1" style="fill: #afafd7;" /><rect x="12" y="8" width="1.8000001" height="1" style="fill: #afafff;" /><rect x="14.400001" y="8" width="1.8000001" height="1" style="fill: #afd700;" /><rect x="16.800001" y="8" width="1.8000001" height="1" style="fill: #afd75f;" /><rect x="19.2" y="8" width="1.8000001" height="1" style="fill: #afd787;" /><rect x="21.6" y="8" width="1.8000001" height="1" style="fill: #afd7af;" /><rect x="24" y="8" width="1.8000001" height="1" style="fill: #afd7d7;" /><rect x="26.400002" y="8" width="1.8000001" height="1" style="fill: #afd7ff;" /><rect x="28.800001" y="8" width="1.8000001" height="1" style="fill: #afff00;" /><rect x="31.2" y="8" width="1.8000001" height="1" style="fill: #afff5f;" /><rect x="33.600002" y="8" width="1.8000001" height="1" style="fill: #afff87;" /><rect x="36" y="8" width="1.8000001" height="1" style="fill: #afffaf;" /><rect x="38.4" y="8" width="1.8000001" height="1" style="fill: #afffd7;" /><rect x="40.800003" y="8" width="1.8000001" height="1" style="fill: #afffff;" /><rect x="0" y="9" width="1.8000001" height="1" style="fill: #d70000;" /><rect x="2.4" y="9" width="1.8000001" height="1" style="fill: #d7005f;" /><rect x="4.8" y="9" width="1.8000001" height="1" style="fill: #d70087;" /><rect x="7.2000003" y="9" width="1.8000001" height="1" style="fill: #d700af;" /><rect x="9.6" y="9" width="1.8000001" height="1" style="fill: #d700d7;" /><rect x="12" y="9" width="1.8000001" height="1" style="fill: #d700ff;" /><rect x="14.400001" y="9" width="1.8000001" height="1" style="fill: #d75f00;" /><rect x="16.800001" y="9" width="1.8000001" height="1" style="fill: #d75f5f;" /><rect x="19.2" y="9" width="1.8000001" height="1" style="fill: #d75f87;" /><rect x="21.6" y="9" width="1.8000001" height="1" style="fill: #d75faf;" /><rect x="24" y="9" width="1.8000001" height="1" style="fill: #d75fd7;" /><rect x="26.400002" y="9" width="1.8000001" height="1" style="fill: #d75fff;" /><rect x="28.800001" y="9" width="1.8000001" height="1" style="fill: #d78700;" /><rect x="31.2" y="9" width="1.8000001" height="1" style="fill: #d7875f;" /><rect x="33.600002" y="9" width="1.8000001" height="1" style="fill: #d78787;" /><rect x="36" y="9" width="1.8000001" height="1" style="fill: #d787af;" /><rect x="38.4" y="9" width="1.8000001" height="1" style="fill: #d787d7;" /><rect x="40.800003" y="9" width="1.8000001" height="1" style="fill: #d787ff;" /><rect x="0" y="10" width="1.8000001" height="1" style="fill: #d7af00;" /><rect x="2.4" y="10" width="1.8000001" height="1" style="fill: #d7af5f;" /><rect x="4.8" y="10" width="1.8000001" height="1" style="fill: #d7af87;" /><rect x="7.2000003" y="10" width="1.8000001" height="1" style="fill: #d7afaf;" /><rect x="9.6" y="10" width="1.8000001" height="1" style="fill: #d7afd7;" /><rect x="12" y="10" width="1.8000001" height="1" style="fill: #d7afff;" /><rect x="14.400001" y="10" width="1.8000001" height="1" style="fill: #d7d700;" /><rect x="16.800001" y="10" width="1.8000001" height="1" style="fill: #d7d75f;" /><rect x="19.2" y="10" width="1.8000001" height="1" style="fill: #d7d787;" /><rect x="21.6" y="10" width="1.8000001" height="1" style="fill: #d7d7af;" /><rect x="24" y="10" width="1.8000001" height="1" style="fill: #d7d7d7;" /><rect x="26.400002" y="10" width="1.8000001" height="1" style="fill: #d7d7ff;" /><rect x="28.800001" y="10" width="1.8000001" height="1" style="fill: #d7ff00;" /><rect x="31.2" y="10" width="1.8000001" height="1" style="fill: #d7ff5f;" /><rect x="33.600002" y="10" width="1.8000001" height="1" style="fill: #d7ff87;" /><rect x="36" y="10" width="1.8000001" height="1" style="fill: #d7ffaf;" /><rect x="38.4" y="10" width="1.8000001" height="1" style="fill: #d7ffd7;" /><rect x="40.800003" y="10" width="1.8000001" height="1" style="fill: #d7ffff;" /><rect x="0" y="11" width="1.8000001" height="1" style="fill: #ff0000;" /><rect x="2.4" y="11" width="1.8000001" height="1" style="fill: #ff005f;" /><rect x="4.8" y="11" width="1.8000001" height="1" style="fill: #ff0087;" /><rect x="7.2000003" y="11" width="1.8000001" height="1" style="fill: #ff00af;" /><rect x="9.6" y="11" width="1.8000001" height="1" style="fill: #ff00d7;" /><rect x="12" y="11" width="1.8000001" height="1" style="fill: #ff00ff;" /><rect x="14.400001" y="11" width="1.8000001" height="1" style="fill: #ff5f00;" /><rect x="16.800001" y="11" width="1.8000001" height="1" style="fill: #ff5f5f;" /><rect x="19.2" y="11" width="1.8000001" height="1" style="fill: #ff5f87;" /><rect x="21.6" y="11" width="1.8000001" height="1" style="fill: #ff5faf;" /><rect x="24" y="11" width="1.8000001" height="1" style="fill: #ff5fd7;" /><rect x="26.400002" y="11" width="1.8000001" height="1" style="fill: #ff5fff;" /><rect x="28.800001" y="11" width="1.8000001" height="1" style="fill: #ff8700;" /><rect x="31.2" y="11" width="1.8000001" height="1" style="fill: #ff875f;" /><rect x="33.600002" y="11" width="1.8000001" height="1" style="fill: #ff8787;" /><rect x="36" y="11" width="1.8000001" height="1" style="fill: #ff87af;" /><rect x="38.4" y="11" width="1.8000001" height="1" style="fill: #ff87d7;" /><rect x="40.800003" y="11" width="1.8000001" height="1" style="fill: #ff87ff;" /><rect x="0" y="12" width="1.8000001" height="1" style="fill: #ffaf00;" /><rect x="2.4" y="12" width="1.8000001" height="1" style="fill: #ffaf5f;" /><rect x="4.8" y="12" width="1.8000001" height="1" style="fill: #ffaf87;" /><rect x="7.2000003" y="12" width="1.8000001" height="1" style="fill: #ffafaf;" /><rect x="9.6" y="12" width="1.8000001" height="1" style="fill: #ffafd7;" /><rect x="12" y="12" width="1.8000001" height="1" style="fill: #ffafff;" /><rect x="14.400001" y="12" width="1.8000001" height="1" style="fill: #ffd700;" /><rect x="16.800001" y="12" width="1.8000001" height="1" style="fill: #ffd75f;" /><rect x="19.2" y="12" width="1.8000001" height="1" style="fill: #ffd787;" /><rect x="21.6" y="12" width="1.8000001" height="1" style="fill: #ffd7af;" /><rect x="24" y="12" width="1.8000001" height="1" style="fill: #ffd7d7;" /><rect x="26.400002" y="12" width="1.8000001" height="1" style="fill: #ffd7ff;" /><rect x="28.800001" y="12" width="1.8000001" height="1" style="fill: #ffff00;" /><rect x="31.2" y="12" width="1.8000001" height="1" style="fill: #ffff5f;" /><rect x="33.600002" y="12" width="1.8000001" height="1" style="fill: #ffff87;" /><rect x="36" y="12" width="1.8000001" height="1" style="fill: #ffffaf;" /><rect x="38.4" y="12" width="1.8000001" height="1" style="fill: #ffffd7;" /><rect x="40.800003" y="12" width="1.8000001" height="1" style="fill: #ffffff;" /><text x="0" y="0.75" textLength="0.6" style="fill: #859900; font-weight: 600;">$</text><text x="1.2" y="0.75" textLength="38.4" style="fill: #839496;">for&#160;x&#160;in&#160;{16..231};&#160;do&#160;printf&#160;"\e[48;5;${x}m%03d\e[0m&#160;"&#160;$x;&#160;done</text><text x="0" y="1.75" textLength="1.8000001" style="fill: #839496;">016</text><text x="2.4" y="1.75" textLength="1.8000001" style="fill: #839496;">017</text><text x="4.8" y="1.75" textLength="1.8000001" style="fill: #839496;">018</text><text x="7.2000003" y="1.75" textLength="1.8000001" style="fill: #839496;">019</text><text x="9.6" y="1.75" textLength="1.8000001" style="fill: #839496;">020</text><text x="12" y="1.75" textLength="1.8000001" style="fill: #839496;">021</text><text x="14.400001" y="1.75" textLength="1.8000001" style="fill: #839496;">022</text><text x="16.800001" y="1.75" textLength="1.8000001" style="fill: #839496;">023</text><text x="19.2" y="1.75" textLength="1.8000001" style="fill: #839496;">024</text><text x="21.6" y="1.75" textLength="1.8000001" style="fill: #839496;">025</text><text x="24" y="1.75" textLength="1.8000001" style="fill: #839496;">026</text><text x="26.400002" y="1.75" textLength="1.8000001" style="fill: #839496;">027</text><text x="28.800001" y="1.75" textLength="1.8000001" style="fill: #839496;">028</text><text x="31.2" y="1.75" textLength="1.8000001" style="fill: #839496;">029</text><text x="33.600002" y="1.75" textLength="1.8000001" style="fill: #839496;">030</text><text x="36" y="1.75" textLength="1.8000001" style="fill: #839496;">031</text><text x="38.4" y="1.75" textLength="1.8000001" style="fill: #839496;">032</text><text x="40.800003" y="1.75" textLength="1.8000001" style="fill: #839496;">033</text><text x="0" y="2.75" textLength="1.8000001" style="fill: #839496;">034</text><text x="2.4" y="2.75" textLength="1.8000001" style="fill: #839496;">035</text><text x="4.8" y="2.75" textLength="1.8000001" style="fill: #839496;">036</text><text x="7.2000003" y="2.75" textLength="1.8000001" style="fill: #839496;">037</text><text x="9.6" y="2.75" textLength="1.8000001" style="fill: #839496;">038</text><text x="12" y="2.75" textLength="1.8000001" style="fill: #839496;">039</text><text x="14.400001" y="2.75" textLength="1.8000001" style="fill: #839496;">040</text><text x="16.800001" y="2.75" textLength="1.8000001" style="fill: #839496;">041</text><text x="19.2" y="2.75" textLength="1.8000001" style="fill: #839496;">042</text><text x="21.6" y="2.75" textLength="1.8000001" style="fill: #839496;">043</text><text x="24" y="2.75" textLength="1.8000001" style="fill: #839496;">044</text><text x="26.400002" y="2.75" textLength="1.8000001" style="fill: #839496;">045</text><text x="28.800001" y="2.75" textLength="1.8000001" style="fill: #839496;">046</text><text x="31.2" y="2.75" textLength="1.8000001" style="fill: #839496;">047</text><text x="33.600002" y="2.75" textLength="1.8000001" style="fill: #839496;">048</text><text x="36" y="2.75" textLength="1.8000001" style="fill: #839496;">049</text><text x="38.4" y="2.75" textLength="1.8000001" style="fill: #839496;">050</text><text x="40.800003" y="2.75" textLength="1.8000001" style="fill: #839496;">051</text><text x="0" y="3.75" textLength="1.8000001" style="fill: #839496;">052</text><text x="2.4" y="3.75" textLength="1.8000001" style="fill: #839496;">053</text><text x="4.8" y="3.75" textLength="1.8000001" style="fill: #839496;">054</text><text x="7.2000003" y="3.75" textLength="1.8000001" style="fill: #839496;">055</text><text x="9.6" y="3.75" textLength="1.8000001" style="fill: #839496;">056</text><text x="12" y="3.75" textLength="1.8000001" style="fill: #839496;">057</text><text x="14.400001" y="3.75" textLength="1.8000001" style="fill: #839496;">058</text><text x="16.800001" y="3.75" textLength="1.8000001" style="fill: #839496;">059</text><text x="19.2" y="3.75" textLength="1.8000001" style="fill: #839496;">060</text><text x="21.6" y="3.75" textLength="1.8000001" style="fill: #839496;">061</text><text x="24" y="3.75" textLength="1.8000001" style="fill: #839496;">062</text><text x="26.400002" y="3.75" textLength="1.8000001" style="fill: #839496;">063</text><text x="28.800001" y="3.75" textLength="1.8000001" style="fill: #839496;">064</text><text x="31.2" y="3.75" textLength="1.8000001" style="fill: #839496;">065</text><text x="33.600002" y="3.75" textLength="1.8000001" style="fill: #839496;">066</text><text x="36" y="3.75" textLength="1.8000001" style="fill: #839496;">067</text><text x="38.4" y="3.75" textLength="1.8000001" style="fill: #839496;">068</text><text x="40.800003" y="3.75" textLength="1.8000001" style="fill: #839496;">069</text><text x="0" y="4.75" textLength="1.8000001" style="fill: #839496;">070</text><text x="2.4" y="4.75" textLength="1.8000001" style="fill: #839496;">071</text><text x="4.8" y="4.75" textLength="1.8000001" style="fill: #839496;">072</text><text x="7.2000003" y="4.75" textLength="1.8000001" style="fill: #839496;">073</text><text x="9.6" y="4.75" textLength="1.8000001" style="fill: #839496;">074</text><text x="12" y="4.75" textLength="1.8000001" style="fill: #839496;">075</text><text x="14.400001" y="4.75" textLength="1.8000001" style="fill: #839496;">076</text><text x="16.800001" y="4.75" textLength="1.8000001" style="fill: #839496;">077</text><text x="19.2" y="4.75" textLength="1.8000001" style="fill: #839496;">078</text><text x="21.6" y="4.75" textLength="1.8000001" style="fill: #839496;">079</text><text x="24" y="4.75" textLength="1.8000001" style="fill: #839496;">080</text><text x="26.400002" y="4.75" textLength="1.8000001" style="fill: #839496;">081</text><text x="28.800001" y="4.75" textLength="1.8000001" style="fill: #839496;">082</text><text x="31.2" y="4.75" textLength="1.8000001" style="fill: #839496;">083</text><text x="33.600002" y="4.75" textLength="1.8000001" style="fill: #839496;">084</text><text x="36" y="4.75" textLength="1.8000001" style="fill: #839496;">085</text><text x="38.4" y="4.75" textLength="1.8000001" style="fill: #839496;">086</text><text x="40.800003" y="4.75" textLength="1.8000001" style="fill: #839496;">087</text><text x="0" y="5.75" textLength="1.8000001" style="fill: #839496;">088</text><text x="2.4" y="5.75" textLength="1.8000001" style="fill: #839496;">089</text><text x="4.8" y="5.75" textLength="1.8000001" style="fill: #839496;">090</text><text x="7.2000003" y="5.75" textLength="1.8000001" style="fill: #839496;">091</text><text x="9.6" y="5.75" textLength="1.8000001" style="fill: #839496;">092</text><text x="12" y="5.75" textLength="1.8000001" style="fill: #839496;">093</text><text x="14.400001" y="5.75" textLength="1.8000001" style="fill: #839496;">094</text><text x="16.800001" y="5.75" textLength="1.8000001" style="fill: #839496;">095</text><text x="19.2" y="5.75" textLength="1.8000001" style="fill: #839496;">096</text><text x="21.6" y="5.75" textLength="1.8000001" style="fill: #839496;">097</text><text x="24" y="5.75" textLength="1.8000001" style="fill: #839496;">098</text><text x="26.400002" y="5.75" textLength="1.8000001" style="fill: #839496;">099</text><text x="28.800001" y="5.75" textLength="1.8000001" style="fill: #839496;">100</text><text x="31.2" y="5.75" textLength="1.8000001" style="fill: #839496;">101</text><text x="33.600002" y="5.75" textLength="1.8000001" style="fill: #839496;">102</text><text x="36" y="5.75" textLength="1.8000001" style="fill: #839496;">103</text><text x="38.4" y="5.75" textLength="1.8000001" style="fill: #839496;">104</text><text x="40.800003" y="5.75" textLength="1.8000001" style="fill: #839496;">105</text><text x="0" y="6.75" textLength="1.8000001" style="fill: #839496;">106</text><text x="2.4" y="6.75" textLength="1.8000001" style="fill: #839496;">107</text><text x="4.8" y="6.75" textLength="1.8000001" style="fill: #839496;">108</text><text x="7.2000003" y="6.75" textLength="1.8000001" style="fill: #839496;">109</text><text x="9.6" y="6.75" textLength="1.8000001" style="fill: #839496;">110</text><text x="12" y="6.75" textLength="1.8000001" style="fill: #839496;">111</text><text x="14.400001" y="6.75" textLength="1.8000001" style="fill: #839496;">112</text><text x="16.800001" y="6.75" textLength="1.8000001" style="fill: #839496;">113</text><text x="19.2" y="6.75" textLength="1.8000001" style="fill: #839496;">114</text><text x="21.6" y="6.75" textLength="1.8000001" style="fill: #839496;">115</text><text x="24" y="6.75" textLength="1.8000001" style="fill: #839496;">116</text><text x="26.400002" y="6.75" textLength="1.8000001" style="fill: #839496;">117</text><text x="28.800001" y="6.75" textLength="1.8000001" style="fill: #839496;">118</text><text x="31.2" y="6.75" textLength="1.8000001" style="fill: #839496;">119</text><text x="33.600002" y="6.75" textLength="1.8000001" style="fill: #839496;">120</text><text x="36" y="6.75" textLength="1.8000001" style="fill: #839496;">121</text><text x="38.4" y="6.75" textLength="1.8000001" style="fill: #839496;">122</text><text x="40.800003" y="6.75" textLength="1.8000001" style="fill: #839496;">123</text><text x="0" y="7.75" textLength="1.8000001" style="fill: #839496;">124</text><text x="2.4" y="7.75" textLength="1.8000001" style="fill: #839496;">125</text><text x="4.8" y="7.75" textLength="1.8000001" style="fill: #839496;">126</text><text x="7.2000003" y="7.75" textLength="1.8000001" style="fill: #839496;">127</text><text x="9.6" y="7.75" textLength="1.8000001" style="fill: #839496;">128</text><text x="12" y="7.75" textLength="1.8000001" style="fill: #839496;">129</text><text x="14.400001" y="7.75" textLength="1.8000001" style="fill: #839496;">130</text><text x="16.800001" y="7.75" textLength="1.8000001" style="fill: #839496;">131</text><text x="19.2" y="7.75" textLength="1.8000001" style="fill: #839496;">132</text><text x="21.6" y="7.75" textLength="1.8000001" style="fill: #839496;">133</text><text x="24" y="7.75" textLength="1.8000001" style="fill: #839496;">134</text><text x="26.400002" y="7.75" textLength="1.8000001" style="fill: #839496;">135</text><text x="28.800001" y="7.75" textLength="1.8000001" style="fill: #839496;">136</text><text x="31.2" y="7.75" textLength="1.8000001" style="fill: #839496;">137</text><text x="33.600002" y="7.75" textLength="1.8000001" style="fill: #839496;">138</text><text x="36" y="7.75" textLength="1.8000001" style="fill: #839496;">139</text><text x="38.4" y="7.75" textLength="1.8000001" style="fill: #839496;">140</text><text x="40.800003" y="7.75" textLength="1.8000001" style="fill: #839496;">141</text><text x="0" y="8.75" textLength="1.8000001" style="fill: #839496;">142</text><text x="2.4" y="8.75" textLength="1.8000001" style="fill: #839496;">143</text><text x="4.8" y="8.75" textLength="1.8000001" style="fill: #839496;">144</text><text x="7.2000003" y="8.75" textLength="1.8000001" style="fill: #839496;">145</text><text x="9.6" y="8.75" textLength="1.8000001" style="fill: #839496;">146</text><text x="12" y="8.75" textLength="1.8000001" style="fill: #839496;">147</text><text x="14.400001" y="8.75" textLength="1.8000001" style="fill: #839496;">148</text><text x="16.800001" y="8.75" textLength="1.8000001" style="fill: #839496;">149</text><text x="19.2" y="8.75" textLength="1.8000001" style="fill: #839496;">150</text><text x="21.6" y="8.75" textLength="1.8000001" style="fill: #839496;">151</text><text x="24" y="8.75" textLength="1.8000001" style="fill: #839496;">152</text><text x="26.400002" y="8.75" textLength="1.8000001" style="fill: #839496;">153</text><text x="28.800001" y="8.75" textLength="1.8000001" style="fill: #839496;">154</text><text x="31.2" y="8.75" textLength="1.8000001" style="fill: #839496;">155</text><text x="33.600002" y="8.75" textLength="1.8000001" style="fill: #839496;">156</text><text x="36" y="8.75" textLength="1.8000001" style="fill: #839496;">157</text><text x="38.4" y="8.75" textLength="1.8000001" style="fill: #839496;">158</text><text x="40.800003" y="8.75" textLength="1.8000001" style="fill: #839496;">159</text><text x="0" y="9.75" textLength="1.8000001" style="fill: #839496;">160</text><text x="2.4" y="9.75" textLength="1.8000001" style="fill: #839496;">161</text><text x="4.8" y="9.75" textLength="1.8000001" style="fill: #839496;">162</text><text x="7.2000003" y="9.75" textLength="1.8000001" style="fill: #839496;">163</text><text x="9.6" y="9.75" textLength="1.8000001" style="fill: #839496;">164</text><text x="12" y="9.75" textLength="1.8000001" style="fill: #839496;">165</text><text x="14.400001" y="9.75" textLength="1.8000001" style="fill: #839496;">166</text><text x="16.800001" y="9.75" textLength="1.8000001" style="fill: #839496;">167</text><text x="19.2" y="9.75" textLength="1.8000001" style="fill: #839496;">168</text><text x="21.6" y="9.75" textLength="1.8000001" style="fill: #839496;">169</text><text x="24" y="9.75" textLength="1.8000001" style="fill: #839496;">170</text><text x="26.400002" y="9.75" textLength="1.8000001" style="fill: #839496;">171</text><text x="28.800001" y="9.75" textLength="1.8000001" style="fill: #839496;">172</text><text x="31.2" y="9.75" textLength="1.8000001" style="fill: #839496;">173</text><text x="33.600002" y="9.75" textLength="1.8000001" style="fill: #839496;">174</text><text x="36" y="9.75" textLength="1.8000001" style="fill: #839496;">175</text><text x="38.4" y="9.75" textLength="1.8000001" style="fill: #839496;">176</text><text x="40.800003" y="9.75" textLength="1.8000001" style="fill: #839496;">177</text><text x="0" y="10.75" textLength="1.8000001" style="fill: #839496;">178</text><text x="2.4" y="10.75" textLength="1.8000001" style="fill: #839496;">179</text><text x="4.8" y="10.75" textLength="1.8000001" style="fill: #839496;">180</text><text x="7.2000003" y="10.75" textLength="1.8000001" style="fill: #839496;">181</text><text x="9.6" y="10.75" textLength="1.8000001" style="fill: #839496;">182</text><text x="12" y="10.75" textLength="1.8000001" style="fill: #839496;">183</text><text x="14.400001" y="10.75" textLength="1.8000001" style="fill: #839496;">184</text><text x="16.800001" y="10.75" textLength="1.8000001" style="fill: #839496;">185</text><text x="19.2" y="10.75" textLength="1.8000001" style="fill: #839496;">186</text><text x="21.6" y="10.75" textLength="1.8000001" style="fill: #839496;">187</text><text x="24" y="10.75" textLength="1.8000001" style="fill: #839496;">188</text><text x="26.400002" y="10.75" textLength="1.8000001" style="fill: #839496;">189</text><text x="28.800001" y="10.75" textLength="1.8000001" style="fill: #839496;">190</text><text x="31.2" y="10.75" textLength="1.8000001" style="fill: #839496;">191</text><text x="33.600002" y="10.75" textLength="1.8000001" style="fill: #839496;">192</text><text x="36" y="10.75" textLength="1.8000001" style="fill: #839496;">193</text><text x="38.4" y="10.75" textLength="1.8000001" style="fill: #839496;">194</text><text x="40.800003" y="10.75" textLength="1.8000001" style="fill: #839496;">195</text><text x="0" y="11.75" textLength="1.8000001" style="fill: #839496;">196</text><text x="2.4" y="11.75" textLength="1.8000001" style="fill: #839496;">197</text><text x="4.8" y="11.75" textLength="1.8000001" style="fill: #839496;">198</text><text x="7.2000003" y="11.75" textLength="1.8000001" style="fill: #839496;">199</text><text x="9.6" y="11.75" textLength="1.8000001" style="fill: #839496;">200</text><text x="12" y="11.75" textLength="1.8000001" style="fill: #839496;">201</text><text x="14.400001" y="11.75" textLength="1.8000001" style="fill: #839496;">202</text><text x="16.800001" y="11.75" textLength="1.8000001" style="fill: #839496;">203</text><text x="19.2" y="11.75" textLength="1.8000001" style="fill: #839496;">204</text><text x="21.6" y="11.75" textLength="1.8000001" style="fill: #839496;">205</text><text x="24" y="11.75" textLength="1.8000001" style="fill: #839496;">206</text><text x="26.400002" y="11.75" textLength="1.8000001" style="fill: #839496;">207</text><text x="28.800001" y="11.75" textLength="1.8000001" style="fill: #839496;">208</text><text x="31.2" y="11.75" textLength="1.8000001" style="fill: #839496;">209</text><text x="33.600002" y="11.75" textLength="1.8000001" style="fill: #839496;">210</text><text x="36" y="11.75" textLength="1.8000001" style="fill: #839496;">211</text><text x="38.4" y="11.75" textLength="1.8000001" style="fill: #839496;">212</text><text x="40.800003" y="11.75" textLength="1.8000001" style="fill: #839496;">213</text><text x="0" y="12.75" textLength="1.8000001" style="fill: #839496;">214</text><text x="2.4" y="12.75" textLength="1.8000001" style="fill: #839496;">215</text><text x="4.8" y="12.75" textLength="1.8000001" style="fill: #839496;">216</text><text x="7.2000003" y="12.75" textLength="1.8000001" style="fill: #839496;">217</text><text x="9.6" y="12.75" textLength="1.8000001" style="fill: #839496;">218</text><text x="12" y="12.75" textLength="1.8000001" style="fill: #839496;">219</text><text x="14.400001" y="12.75" textLength="1.8000001" style="fill: #839496;">220</text><text x="16.800001" y="12.75" textLength="1.8000001" style="fill: #839496;">221</text><text x="19.2" y="12.75" textLength="1.8000001" style="fill: #839496;">222</text><text x="21.6" y="12.75" textLength="1.8000001" style="fill: #839496;">223</text><text x="24" y="12.75" textLength="1.8000001" style="fill: #839496;">224</text><text x="26.400002" y="12.75" textLength="1.8000001" style="fill: #839496;">225</text><text x="28.800001" y="12.75" textLength="1.8000001" style="fill: #839496;">226</text><text x="31.2" y="12.75" textLength="1.8000001" style="fill: #839496;">227</text><text x="33.600002" y="12.75" textLength="1.8000001" style="fill: #839496;">228</text><text x="36" y="12.75" textLength="1.8000001" style="fill: #839496;">229</text><text x="38.4" y="12.75" textLength="1.8000001" style="fill: #839496;">230</text><text x="40.800003" y="12.75" textLength="1.8000001" style="fill: #839496;">231</text><text x="0" y="13.75" textLength="0.6" style="fill: #859900; font-weight: 600;">$</text><text x="0" y="14.75" textLength="2.4" style="fill: #839496;">exit</text>
</g>
</svg>