<svg viewBox="0 0 43.2 16" xmlns="http://www.w3.org/2000/svg">
<style>
  .screen {
    font-family: "ui-monospace", "Consolas", "Liberation Mono", "Source Code Pro", monospace;
    font-size: 1px;
  }
</style>
<g class="screen">
<rect x="0" y="0" width="43.2" height="16" style="fill: #002b36;" />
<rect x="0" y="1" width="1.8000001" height="1" style="fill: #000000;" />
<rect x="2.4" y="1" width="1.8000001" height="1" style="fill: #00005f;" />
<rect x="4.8" y="1" width="1.8000001" height="1" style="fill: #000087;" />
<rect x="7.2000003" y="1" width="1.8000001" height="1" style="fill: #0000af;" />
<rect x="9.6" y="1" width="1.8000001" height="1" style="fill: #0000d7;" />
<rect x="12" y="1" width="1.8000001" height="1" style="fill: #0000ff;" />
<rect x="14.400001" y="1" width="1.8000001" height="1" style="fill: #005f00;" />
<rect x="16.800001" y="1" width="1.8000001" height="1" style="fill: #005f5f;" />
<rect x="19.2" y="1" width="1.8000001" height="1" style="fill: #005f87;" />
<rect x="21.6" y="1" width="1.8000001" height="1" style="fill: #005faf;" />
<rect x="24" y="1" width="1.8000001" height="1" style="fill: #005fd7;" />
<rect x="26.400002" y="1" width="1.8000001" height="1" style="fill: #005fff;" />
<rect x="28.800001" y="1" width="1.8000001" height="1" style="fill: #008700;" />
<rect x="31.2" y="1" width="1.8000001" height="1" style="fill: #00875f;" />
<rect x="33.600002" y="1" width="1.8000001" height="1" style="fill: #008787;" />
<rect x="36" y="1" width="1.8000001" height="1" style="fill: #0087af;" />
<rect x="38.4" y="1" width="1.8000001" height="1" style="fill: #0087d7;" />
<rect x="40.800003" y="1" width="1.8000001" height="1" style="fill: #0087ff;" />
<rect x="0" y="2" width="1.8000001" height="1" style="fill: #00af00;" />
<rect x="2.4" y="2" width="1.8000001" height="1" style="fill: #00af5f;" />
<rect x="4.8" y="2" width="1.8000001" height="1" style="fill: #00af87;" />
<rect x="7.2000003" y="2" width="1.8000001" height="1" style="fill: #00afaf;" />
<rect x="9.6" y="2" width="1.8000001" height="1" style="fill: #00afd7;" />
<rect x="12" y="2" width="1.8000001" height="1" style="fill: #00afff;" />
<rect x="14.400001" y="2" width="1.8000001" height="1" style="fill: #00d700;" />
<rect x="16.800001" y="2" width="1.8000001" height="1" style="fill: #00d75f;" />
<rect x="19.2" y="2" width="1.8000001" height="1" style="fill: #00d787;" />
<rect x="21.6" y="2" width="1.8000001" height="1" style="fill: #00d7af;" />
<rect x="24" y="2" width="1.8000001" height="1" style="fill: #00d7d7;" />
<rect x="26.400002" y="2" width="1.8000001" height="1" style="fill: #00d7ff;" />
<rect x="28.800001" y="2" width="1.8000001" height="1" style="fill: #00ff00;" />
<rect x="31.2" y="2" width="1.8000001" height="1" style="fill: #00ff5f;" />
<rect x="33.600002" y="2" width="1.8000001" height="1" style="fill: #00ff87;" />
<rect x="36" y="2" width="1.8000001" height="1" style="fill: #00ffaf;" />
<rect x="38.4" y="2" width="1.8000001" height="1" style="fill: #00ffd7;" />
<rect x="40.800003" y="2" width="1.8000001" height="1" style="fill: #00ffff;" />
<rect x="0" y="3" width="1.8000001" height="1" style="fill: #5f0000;" />
<rect x="2.4" y="3" width="1.8000001" height="1" style="fill: #5f005f;" />
<rect x="4.8" y="3" width="1.8000001" height="1" style="fill: #5f0087;" />
<rect x="7.2000003" y="3" width="1.8000001" height="1" style="fill: #5f00af;" />
<rect x="9.6" y="3" width="1.8000001" height="1" style="fill: #5f00d7;" />
<rect x="12" y="3" width="1.8000001" height="1" style="fill: #5f00ff;" />
<rect x="14.400001" y="3" width="1.8000001" height="1" style="fill: #5f5f00;" />
<rect x="16.800001" y="3" width="1.8000001" height="1" style="fill: #5f5f5f;" />
<rect x="19.2" y="3" width="1.8000001" height="1" style="fill: #5f5f87;" />
<rect x="21.6" y="3" width="1.8000001" height="1" style="fill: #5f5faf;" />
<rect x="24" y="3" width="1.8000001" height="1" style="fill: #5f5fd7;" />
<rect x="26.400002" y="3" width="1.8000001" height="1" style="fill: #5f5fff;" />
<rect x="28.800001" y="3" width="1.8000001" height="1" style="fill: #5f8700;" />
<rect x="31.2" y="3" width="1.8000001" height="1" style="fill: #5f875f;" />
<rect x="33.600002" y="3" width="1.8000001" height="1" style="fill: #5f8787;" />
<rect x="36" y="3" width="1.8000001" height="1" style="fill: #5f87af;" />
<rect x="38.4" y="3" width="1.8000001" height="1" style="fill: #5f87d7;" />
<rect x="40.800003" y="3" width="1.8000001" height="1" style="fill: #5f87ff;" />
<rect x="0" y="4" width="1.8000001" height="1" style="fill: #5faf00;" />
<rect x="2.4" y="4" width="1.8000001" height="1" style="fill: #5faf5f;" />
<rect x="4.8" y="4" width="1.8000001" height="1" style="fill: #5faf87;" />
<rect x="7.2000003" y="4" width="1.8000001" height="1" style="fill: #5fafaf;" />
<rect x="9.6" y="4" width="1.8000001" height="1" style="fill: #5fafd7;" />
<rect x="12" y="4" width="1.8000001" height="1" style="fill: #5fafff;" />
<rect x="14.400001" y="4" width="1.8000001" height="1" style="fill: #5fd700;" />
<rect x="16.800001" y="4" width="1.8000001" height="1" style="fill: #5fd75f;" />
<rect x="19.2" y="4" width="1.8000001" height="1" style="fill: #5fd787;" />
<rect x="21.6" y="4" width="1.8000001" height="1" style="fill: #5fd7af;" />
<rect x="24" y="4" width="1.8000001" height="1" style="fill: #5fd7d7;" />
<rect x="26.400002" y="4" width="1.8000001" height="1" style="fill: #5fd7ff;" />
<rect x="28.800001" y="4" width="1.8000001" height="1" style="fill: #5fff00;" />
<rect x="31.2" y="4" width="1.8000001" height="1" style="fill: #5fff5f;" />
<rect x="33.600002" y="4" width="1.8000001" height="1" style="fill: #5fff87;" />
<rect x="36" y="4" width="1.8000001" height="1" style="fill: #5fffaf;" />
<rect x="38.4" y="4" width="1.8000001" height="1" style="fill: #5fffd7;" />
<rect x="40.800003" y="4" width="1.8000001" height="1" style="fill: #5fffff;" />
<rect x="0" y="5" width="1.8000001" height="1" style="fill: #870000;" />
<rect x="2.4" y="5" width="1.8000001" height="1" style="fill: #87005f;" />
<rect x="4.8" y="5" width="1.8000001" height="1" style="fill: #870087;" />
<rect x="7.2000003" y="5" width="1.8000001" height="1" style="fill: #8700af;" />
<rect x="9.6" y="5" width="1.8000001" height="1" style="fill: #8700d7;" />
<rect x="12" y="5" width="1.8000001" height="1" style="fill: #8700ff;" />
<rect x="14.400001" y="5" width="1.8000001" height="1" style="fill: #875f00;" />
<rect x="16.800001" y="5" width="1.8000001" height="1" style="fill: #875f5f;" />
<rect x="19.2" y="5" width="1.8000001" height="1" style="fill: #875f87;" />
<rect x="21.6" y="5" width="1.8000001" height="1" style="fill: #875faf;" />
<rect x="24" y="5" width="1.8000001" height="1" style="fill: #875fd7;" />
<rect x="26.400002" y="5" width="1.8000001" height="1" style="fill: #875fff;" />
<rect x="28.800001" y="5" width="1.8000001" height="1" style="fill: #878700;" />
<rect x="31.2" y="5" width="1.8000001" height="1" style="fill: #87875f;" />
<rect x="33.600002" y="5" width="1.8000001" height="1" style="fill: #878787;" />
<rect x="36" y="5" width="1.8000001" height="1" style="fill: #8787af;" />
<rect x="38.4" y="5" width="1.8000001" height="1" style="fill: #8787d7;" />
<rect x="40.800003" y="5" width="1.8000001" height="1" style="fill: #8787ff;" />
<rect x="0" y="6" width="1.8000001" height="1" style="fill: #87af00;" />
<rect x="2.4" y="6" width="1.8000001" height="1" style="fill: #87af5f;" />
<rect x="4.8" y="6" width="1.8000001" height="1" style="fill: #87af87;" />
<rect x="7.2000003" y="6" width="1.8000001" height="1" style="fill: #87afaf;" />
<rect x="9.6" y="6" width="1.8000001" height="1" style="fill: #87afd7;" />
<rect x="12" y="6" width="1.8000001" height="1" style="fill: #87afff;" />
<rect x="14.400001" y="6" width="1.8000001" height="1" style="fill: #87d700;" />
<rect x="16.800001" y="6" width="1.8000001" height="1" style="fill: #87d75f;" />
<rect x="19.2" y="6" width="1.8000001" height="1" style="fill: #87d787;" />
<rect x="21.6" y="6" width="1.8000001" height="1" style="fill: #87d7af;" />
<rect x="24" y="6" width="1.8000001" height="1" style="fill: #87d7d7;" />
<rect x="26.400002" y="6" width="1.8000001" height="1" style="fill: #87d7ff;" />
<rect x="28.800001" y="6" width="1.8000001" height="1" style="fill: #87ff00;" />
<rect x="31.2" y="6" width="1.8000001" height="1" style="fill: #87ff5f;" />
<rect x="33.600002" y="6" width="1.8000001" height="1" style="fill: #87ff87;" />
<rect x="36" y="6" width="1.8000001" height="1" style="fill: #87ffaf;" />
<rect x="38.4" y="6" width="1.8000001" height="1" style="fill: #87ffd7;" />
<rect x="40.800003" y="6" width="1.8000001" height="1" style="fill: #87ffff;" />
<rect x="0" y="7" width="1.8000001" height="1" style="fill: #af0000;" />
<rect x="2.4" y="7" width="1.8000001" height="1" style="fill: #af005f;" />
<rect x="4.8" y="7" width="1.8000001" height="1" style="fill: #af0087;" />
<rect x="7.2000003" y="7" width="1.8000001" height="1" style="fill: #af00af;" />
<rect x="9.6" y="7" width="1.8000001" height="1" style="fill: #af00d7;" />
<rect x="12" y="7" width="1.8000001" height="1" style="fill: #af00ff;" />
<rect x="14.400001" y="7" width="1.8000001" height="1" style="fill: #af5f00;" />
<rect x="16.800001" y="7" width="1.8000001" height="1" style="fill: #af5f5f;" />
<rect x="19.2" y="7" width="1.8000001" height="1" style="fill: #af5f87;" />
<rect x="21.6" y="7" width="1.8000001" height="1" style="fill: #af5faf;" />
<rect x="24" y="7" width="1.8000001" height="1" style="fill: #af5fd7;" />
<rect x="26.400002" y="7" width="1.8000001" height="1" style="fill: #af5fff;" />
<rect x="28.800001" y="7" width="1.8000001" height="1" style="fill: #af8700;" />
<rect x="31.2" y="7" width="1.8000001" height="1" style="fill: #af875f;" />
<rect x="33.600002" y="7" width="1.8000001" height="1" style="fill: #af8787;" />
<rect x="36" y="7" width="1.8000001" height="1" style="fill: #af87af;" />
<rect x="38.4" y="7" width="1.8000001" height="1" style="fill: #af87d7;" />
<rect x="40.800003" y="7" width="1.8000001" height="1" style="fill: #af87ff;" />
<rect x="0" y="8" width="1.8000001" height="1" style="fill: #afaf00;" />
<rect x="2.4" y="8" width="1.8000001" height="1" style="fill: #afaf5f;" />
<rect x="4.8" y="8" width="1.8000001" height="1" style="fill: #afaf87;" />
<rect x="7.2000003" y="8" width="1.8000001" height="1" style="fill: #afafaf;" />
<rect x="9.6" y="8" width="1.8000001" height="1" style="fill: #afafd7;" />
<rect x="12" y="8" width="1.8000001" height="1" style="fill: #afafff;" />
<rect x="14.400001" y="8" width="1.8000001" height="1" style="fill: #afd700;" />
<rect x="16.800001" y="8" width="1.8000001" height="1" style="fill: #afd75f;" />
<rect x="19.2" y="8" width="1.8000001" height="1" style="fill: #afd787;" />
<rect x="21.6" y="8" width="1.8000001" height="1" style="fill: #afd7af;" />
<rect x="24" y="8" width="1.8000001" height="1" style="fill: #afd7d7;" />
<rect x="26.400002" y="8" width="1.8000001" height="1" style="fill: #afd7ff;" />
<rect x="28.800001" y="8" width="1.8000001" height="1" style="fill: #afff00;" />
<rect x="31.2" y="8" width="1.8000001" height="1" style="fill: #afff5f;" />
<rect x="33.600002" y="8" width="1.8000001" height="1" style="fill: #afff87;" />
<rect x="36" y="8" width="1.8000001" height="1" style="fill: #afffaf;" />
<rect x="38.4" y="8" width="1.8000001" height="1" style="fill: #afffd7;" />
<rect x="40.800003" y="8" width="1.8000001" height="1" style="fill: #afffff;" />
<rect x="0" y="9" width="1.8000001" height="1" style="fill: #d70000;" />
<rect x="2.4" y="9" width="1.8000001" height="1" style="fill: #d7005f;" />
<rect x="4.8" y="9" width="1.8000001" height="1" style="fill: #d70087;" />
<rect x="7.2000003" y="9" width="1.8000001" height="1" style="fill: #d700af;" />
<rect x="9.6" y="9" width="1.8000001" height="1" style="fill: #d700d7;" />
<rect x="12" y="9" width="1.8000001" height="1" style="fill: #d700ff;" />
<rect x="14.400001" y="9" width="1.8000001" height="1" style="fill: #d75f00;" />
<rect x="16.800001" y="9" width="1.8000001" height="1" style="fill: #d75f5f;" />
<rect x="19.2" y="9" width="1.8000001" height="1" style="fill: #d75f87;" />
<rect x="21.6" y="9" width="1.8000001" height="1" style="fill: #d75faf;" />
<rect x="24" y="9" width="1.8000001" height="1" style="fill: #d75fd7;" />
<rect x="26.400002" y="9" width="1.8000001" height="1" style="fill: #d75fff;" />
<rect x="28.800001" y="9" width="1.8000001" height="1" style="fill: #d78700;" />
<rect x="31.2" y="9" width="1.8000001" height="1" style="fill: #d7875f;" />
<rect x="33.600002" y="9" width="1.8000001" height="1" style="fill: #d78787;" />
<rect x="36" y="9" width="1.8000001" height="1" style="fill: #d787af;" />
<rect x="38.4" y="9" width="1.8000001" height="1" style="fill: #d787d7;" />
<rect x="40.800003" y="9" width="1.8000001" height="1" style="fill: #d787ff;" />
<rect x="0" y="10" width="1.8000001" height="1" style="fill: #d7af00;" />
<rect x="2.4" y="10" width="1.8000001" height="1" style="fill: #d7af5f;" />
<rect x="4.8" y="10" width="1.8000001" height="1" style="fill: #d7af87;" />
<rect x="7.2000003" y="10" width="1.8000001" height="1" style="fill: #d7afaf;" />
<rect x="9.6" y="10" width="1.8000001" height="1" style="fill: #d7afd7;" />
<rect x="12" y="10" width="1.8000001" height="1" style="fill: #d7afff;" />
<rect x="14.400001" y="10" width="1.8000001" height="1" style="fill: #d7d700;" />
<rect x="16.800001" y="10" width="1.8000001" height="1" style="fill: #d7d75f;" />
<rect x="19.2" y="10" width="1.8000001" height="1" style="fill: #d7d787;" />
<rect x="21.6" y="10" width="1.8000001" height="1" style="fill: #d7d7af;" />
<rect x="24" y="10" width="1.8000001" height="1" style="fill: #d7d7d7;" />
<rect x="26.400002" y="10" width="1.8000001" height="1" style="fill: #d7d7ff;" />
<rect x="28.800001" y="10" width="1.8000001" height="1" style="fill: #d7ff00;" />
<rect x="31.2" y="10" width="1.8000001" height="1" style="fill: #d7ff5f;" />
<rect x="33.600002" y="10" width="1.8000001" height="1" style="fill: #d7ff87;" />
<rect x="36" y="10" width="1.8000001" height="1" style="fill: #d7ffaf;" />
<rect x="38.4" y="10" width="1.8000001" height="1" style="fill: #d7ffd7;" />
<rect x="40.800003" y="10" width="1.8000001" height="1" style="fill: #d7ffff;" />
<rect x="0" y="11" width="1.8000001" height="1" style="fill: #ff0000;" />
<rect x="2.4" y="11" width="1.8000001" height="1" style="fill: #ff005f;" />
<rect x="4.8" y="11" width="1.8000001" height="1" style="fill: #ff0087;" />
<rect x="7.2000003" y="11" width="1.8000001" height="1" style="fill: #ff00af;" />
<rect x="9.6" y="11" width="1.8000001" height="1" style="fill: #ff00d7;" />
<rect x="12" y="11" width="1.8000001" height="1" style="fill: #ff00ff;" />
<rect x="14.400001" y="11" width="1.8000001" height="1" style="fill: #ff5f00;" />
<rect x="16.800001" y="11" width="1.8000001" height="1" style="fill: #ff5f5f;" />
<rect x="19.2" y="11" width="1.8000001" height="1" style="fill: #ff5f87;" />
<rect x="21.6" y="11" width="1.8000001" height="1" style="fill: #ff5faf;" />
<rect x="24" y="11" width="1.8000001" height="1" style="fill: #ff5fd7;" />
<rect x="26.400002" y="11" width="1.8000001" height="1" style="fill: #ff5fff;" />
<rect x="28.800001" y="11" width="1.8000001" height="1" style="fill: #ff8700;" />
<rect x="31.2" y="11" width="1.8000001" height="1" style="fill: #ff875f;" />
<rect x="33.600002" y="11" width="1.8000001" height="1" style="fill: #ff8787;" />
<rect x="36" y="11" width="1.8000001" height="1" style="fill: #ff87af;" />
<rect x="38.4" y="11" width="1.8000001" height="1" style="fill: #ff87d7;" />
<rect x="40.800003" y="11" width="1.8000001" height="1" style="fill: #ff87ff;" />
<rect x="0" y="12" width="1.8000001" height="1" style="fill: #ffaf00;" />
<rect x="2.4" y="12" width="1.8000001" height="1" style="fill: #ffaf5f;" />
<rect x="4.8" y="12" width="1.8000001" height="1" style="fill: #ffaf87;" />
<rect x="7.2000003" y="12" width="1.8000001" height="1" style="fill: #ffafaf;" />
<rect x="9.6" y="12" width="1.8000001" height="1" style="fill: #ffafd7;" />
<rect x="12" y="12" width="1.8000001" height="1" style="fill: #ffafff;" />
<rect x="14.400001" y="12" width="1.8000001" height="1" style="fill: #ffd700;" />
<rect x="16.800001" y="12" width="1.8000001" height="1" style="fill: #ffd75f;" />
<rect x="19.2" y="12" width="1.8000001" height="1" style="fill: #ffd787;" />
<rect x="21.6" y="12" width="1.8000001" height="1" style="fill: #ffd7af;" />
<rect x="24" y="12" width="1.8000001" height="1" style="fill: #ffd7d7;" />
<rect x="26.400002" y="12" width="1.8000001" height="1" style="fill: #ffd7ff;" />
<rect x="28.800001" y="12" width="1.8000001" height="1" style="fill: #ffff00;" />
<rect x="31.2" y="12" width="1.8000001" height="1" style="fill: #ffff5f;" />
<rect x="33.600002" y="12" width="1.8000001" height="1" style="fill: #ffff87;" />
<rect x="36" y="12" width="1.8000001" height="1" style="fill: #ffffaf;" />
<rect x="38.4" y="12" width="1.8000001" height="1" style="fill: #ffffd7;" />
<rect x="40.800003" y="12" width="1.8000001" height="1" style="fill: #ffffff;" />
<text x="0" y="0.75" textLength="0.6" style="fill: #859900; font-weight: 600;">$</text>
<text x="1.2" y="0.75" textLength="38.4" style="fill: #839496;">for x in {16..231}; do printf "\e[48;5;${x}m%03d\e[0m " $x; done</text>
<text x="0" y="1.75" textLength="42.600002" style="fill: #839496;">016 017 018 019 020 021 022 023 024 025 026 027 028 029 030 031 032 033</text>
<text x="0" y="2.75" textLength="42.600002" style="fill: #839496;">034 035 036 037 038 039 040 041 042 043 044 045 046 047 048 049 050 051</text>
<text x="0" y="3.75" textLength="42.600002" style="fill: #839496;">052 053 054 055 056 057 058 059 060 061 062 063 064 065 066 067 068 069</text>
<text x="0" y="4.75" textLength="42.600002" style="fill: #839496;">070 071 072 073 074 075 076 077 078 079 080 081 082 083 084 085 086 087</text>
<text x="0" y="5.75" textLength="42.600002" style="fill: #839496;">088 089 090 091 092 093 094 095 096 097 098 099 100 101 102 103 104 105</text>
<text x="0" y="6.75" textLength="42.600002" style="fill: #839496;">106 107 108 109 110 111 112 113 114 115 116 117 118 119 120 121 122 123</text>
<text x="0" y="7.75" textLength="42.600002" style="fill: #839496;">124 125 126 127 128 129 130 131 132 133 134 135 136 137 138 139 140 141</text>
<text x="0" y="8.75" textLength="42.600002" style="fill: #839496;">142 143 144 145 146 147 148 149 150 151 152 153 154 155 156 157 158 159</text>
<text x="0" y="9.75" textLength="42.600002" style="fill: #839496;">160 161 162 163 164 165 166 167 168 169 170 171 172 173 174 175 176 177</text>
<text x="0" y="10.75" textLength="42.600002" style="fill: #839496;">178 179 180 181 182 183 184 185 186 187 188 189 190 191 192 193 194 195</text>
<text x="0" y="11.75" textLength="42.600002" style="fill: #839496;">196 197 198 199 200 201 202 203 204 205 206 207 208 209 210 211 212 213</text>
<text x="0" y="12.75" textLength="42.600002" style="fill: #839496;">214 215 216 217 218 219 220 221 222 223 224 225 226 227 228 229 230 231</text>
<text x="0" y="13.75" textLength="0.6" style="fill: #859900; font-weight: 600;">$</text>
<text x="0" y="14.75" textLength="2.4" style="fill: #839496;">exit</text>

</g>
</svg>